<?xml version="1.0" encoding="UTF-8"?>
<svg version="1.1" xmlns="http://www.w3.org/2000/svg" width="768" height="768">
<path d="M0 0 C5.56495883 0.57374656 11.03467312 0.69748911 16.62518311 0.66625977 C18.13762352 0.66406937 18.13762352 0.66406937 19.68061829 0.66183472 C21.85212451 0.65805519 24.02362773 0.65196711 26.19512177 0.64376831 C29.65523393 0.63086397 33.11530713 0.62445213 36.57543945 0.61962891 C45.176941 0.60633986 53.77840578 0.58227891 62.37988281 0.55822754 C69.64718685 0.53828981 76.91447622 0.52273006 84.18180084 0.51266479 C87.54843315 0.50630209 90.91500338 0.4937917 94.28161621 0.48095703 C104.67811024 0.45527855 115.05800893 0.55787018 125.44744873 0.96313477 C126.37337704 0.99583969 127.29930534 1.02854462 128.25329208 1.0622406 C140.25744129 1.59841948 151.52815662 4.36145535 161.91912842 10.56860352 C162.84467529 11.11774414 163.77022217 11.66688477 164.72381592 12.23266602 C180.13955283 21.71605972 191.42277741 35.84573491 196.09100342 53.62719727 C200.22368324 72.05598773 198.54152226 92.60195756 189.91912842 109.56860352 C184.15004246 118.58073205 177.27400918 127.18246005 167.91912842 132.56860352 C167.58912842 133.55860352 167.25912842 134.54860352 166.91912842 135.56860352 C168.12569092 135.90891602 168.12569092 135.90891602 169.35662842 136.25610352 C187.18834441 142.82568309 201.96816884 157.4599187 209.91912842 174.56860352 C211.68156095 179.12098716 212.88460363 183.80240003 213.91912842 188.56860352 C214.19176514 189.7790332 214.19176514 189.7790332 214.46990967 191.01391602 C217.9582774 210.85211163 215.26902946 233.16081463 204.96600342 250.71313477 C197.68388354 260.87196994 189.03879501 269.71884026 177.91912842 275.56860352 C176.81311279 276.21635742 176.81311279 276.21635742 175.68475342 276.87719727 C170.23140083 279.89534585 164.44649938 281.87993199 158.54412842 283.81860352 C157.39460693 284.20640991 157.39460693 284.20640991 156.22186279 284.60205078 C145.4407637 287.99547187 134.1220525 287.72038205 122.92059326 287.75805664 C121.56247718 287.76602196 120.20436353 287.77441162 118.84625244 287.78318787 C115.94899596 287.80107835 113.05174424 287.8161505 110.15446091 287.82896423 C105.57424209 287.84936149 100.99408346 287.87698098 96.41390991 287.90563965 C85.87999673 287.97048774 75.34603987 288.02635504 64.81207275 288.08162689 C55.12329174 288.13249359 45.43453323 288.18528011 35.7458092 288.2461524 C31.1902683 288.27449831 26.63473487 288.29809177 22.07914996 288.31807709 C19.25581895 288.33143613 16.4325237 288.34884725 13.60922241 288.36738777 C11.67027448 288.37887458 9.73129922 288.38541338 7.79232788 288.39183044 C6.64576721 288.4001741 5.49920654 288.40851776 4.31790161 288.41711426 C3.31767157 288.42226799 2.31744152 288.42742172 1.28690147 288.43273163 C-1.09939006 288.41318037 -1.09939006 288.41318037 -3.08087158 289.56860352 C-4.95587158 289.29907227 -4.95587158 289.29907227 -7.08087158 288.75610352 C-7.78212158 288.5846582 -8.48337158 288.41321289 -9.20587158 288.23657227 C-11.08087158 287.56860352 -11.08087158 287.56860352 -13.08087158 285.56860352 C-13.01837158 283.67797852 -13.01837158 283.67797852 -12.08087158 281.56860352 C-9.89337158 279.70922852 -9.89337158 279.70922852 -7.08087158 277.81860352 C1.2464704 271.98622392 8.17802697 265.98781654 13.91912842 257.56860352 C14.67322998 256.53799805 14.67322998 256.53799805 15.44256592 255.48657227 C22.21880447 245.94136314 25.95829371 234.81718954 28.91912842 223.56860352 C29.10008057 222.88685059 29.28103271 222.20509766 29.46746826 221.50268555 C31.15613002 214.30823595 31.22434075 207.15448047 31.17987061 199.80151367 C31.16918165 197.70404926 31.1798036 195.60744775 31.19256592 193.51000977 C31.20818816 181.66896142 30.06428024 170.91705489 25.23162842 160.00610352 C24.70206543 158.78358887 24.70206543 158.78358887 24.1618042 157.53637695 C19.97767637 148.11131517 14.67436748 140.31241414 7.91912842 132.56860352 C7.91912842 131.90860352 7.91912842 131.24860352 7.91912842 130.56860352 C7.11088623 130.20702148 7.11088623 130.20702148 6.28631592 129.83813477 C1.11220368 127.06323959 -3.43671225 123.14628033 -8.08087158 119.56860352 C-8.76794189 119.04137695 -9.45501221 118.51415039 -10.16290283 117.97094727 C-12.79192796 115.87924114 -13.99341444 114.83097495 -15.08087158 111.56860352 C-12.79782229 108.73851552 -11.68848665 107.6531885 -8.02227783 107.14282227 C-6.90723877 107.18020508 -5.79219971 107.21758789 -4.64337158 107.25610352 C-3.53091064 107.2805957 -2.41844971 107.30508789 -1.27227783 107.33032227 C1.91912842 107.56860352 1.91912842 107.56860352 4.70428467 108.15063477 C6.94934553 108.80571124 6.94934553 108.80571124 8.91912842 107.56860352 C10.40412842 108.06360352 10.40412842 108.06360352 11.91912842 108.56860352 C13.98057949 108.63759452 16.04414243 108.65328078 18.10662842 108.63110352 C19.19330811 108.62208008 20.27998779 108.61305664 21.39959717 108.60375977 C22.23104248 108.5921582 23.06248779 108.58055664 23.91912842 108.56860352 C25.43374232 75.9820803 25.26122653 47.33183541 2.91912842 21.56860352 C1.25471943 20.23245297 -0.41130022 18.89829785 -2.08087158 17.56860352 C-2.08087158 16.90860352 -2.08087158 16.24860352 -2.08087158 15.56860352 C-2.61712158 15.34172852 -3.15337158 15.11485352 -3.70587158 14.88110352 C-7.83639692 12.59844478 -11.51282905 10.3944545 -12.95587158 5.75610352 C-13.01774658 4.67329102 -13.01774658 4.67329102 -13.08087158 3.56860352 C-8.66153719 -0.06156402 -5.62970096 -0.66390469 0 0 Z M88.73162842 62.75610352 C87.82300049 62.77382813 86.91437256 62.79155273 85.97821045 62.80981445 C82.22481088 62.97462877 79.61445726 63.16962718 76.32537842 65.05688477 C74.19963872 68.85369205 74.45305528 72.29585762 74.60662842 76.56860352 C74.61629639 77.37555664 74.62596436 78.18250977 74.63592529 79.01391602 C74.69432534 83.3529307 74.69432534 83.3529307 75.46136475 87.60375977 C76.07899083 90.25477561 75.56377379 92.61642419 75.18475342 95.27954102 C74.17021355 103.75712958 74.17021355 103.75712958 76.91912842 111.56860352 C79.93650956 113.07729409 83.06517015 112.75212243 86.37615967 112.77172852 C87.48612556 112.78027863 87.48612556 112.78027863 88.61851501 112.78900146 C90.18623423 112.7984537 91.75397333 112.80498634 93.32171631 112.80883789 C95.71196549 112.81852384 98.10134747 112.84953547 100.49139404 112.88110352 C102.01547749 112.88763575 103.53956707 112.89288535 105.06365967 112.89672852 C105.77528763 112.90907532 106.48691559 112.92142212 107.22010803 112.93414307 C111.62255283 112.91453673 114.51313034 112.42869113 117.91912842 109.56860352 C120.23142146 105.58482058 120.1767345 101.82796267 120.18475342 97.29125977 C120.18666687 96.60229111 120.18858032 95.91332245 120.19055176 95.20347595 C120.1919075 93.7520206 120.18825386 92.30055287 120.17987061 90.84912109 C120.1691783 88.64140228 120.17977767 86.4345001 120.19256592 84.22680664 C120.19124389 82.81078924 120.18868061 81.39477234 120.18475342 79.97875977 C120.18249756 78.70137939 120.1802417 77.42399902 120.17791748 76.10791016 C119.86916619 71.88529938 119.07020467 68.28422034 116.69256592 64.74047852 C110.06341016 60.35997911 96.39152794 62.51503457 88.73162842 62.75610352 Z M75.91912842 175.56860352 C74.58333818 186.87511375 74.73547026 198.20340487 74.91912842 209.56860352 C74.92637939 210.30014648 74.93363037 211.03168945 74.94110107 211.78540039 C74.9675584 213.60961079 75.03509817 215.43310407 75.10662842 217.25610352 C75.14143311 218.2293457 75.17623779 219.20258789 75.21209717 220.20532227 C75.72128095 222.73874397 75.72128095 222.73874397 78.00799561 224.19580078 C81.61856777 225.89843809 84.2185565 225.92583058 88.20428467 225.89672852 C88.90121933 225.89485535 89.59815399 225.89298218 90.31620789 225.89105225 C91.78960971 225.8843494 93.26299426 225.87046999 94.73626709 225.84985352 C96.9503913 225.81903826 99.1637964 225.80890641 101.37811279 225.80297852 C118.04468762 226.50837338 118.04468762 226.50837338 132.91912842 220.56860352 C135.42044208 216.98370349 135.24174558 213.16624729 135.25506592 208.95141602 C135.26172272 208.21664032 135.26837952 207.48186462 135.27523804 206.724823 C135.2853429 205.1732635 135.29005573 203.62166073 135.28973389 202.07006836 C135.29410149 199.70816642 135.33042413 197.34814315 135.36834717 194.98657227 C135.37421716 193.47485987 135.37818533 191.96313864 135.38006592 190.45141602 C135.39443695 189.75122345 135.40880798 189.05103088 135.4236145 188.32962036 C135.37714405 183.28974344 134.0503994 180.46560657 130.91912842 176.56860352 C125.53330877 172.52923878 116.48694554 173.409957 110.00115967 173.40063477 C109.18088791 173.39730637 108.36061615 173.39397797 107.51548767 173.39054871 C105.79530391 173.38552064 104.07511054 173.38313909 102.35491943 173.38330078 C99.72837432 173.38110079 97.10224084 173.36286494 94.47576904 173.34399414 C92.79673401 173.341062 91.117697 173.33907601 89.43865967 173.33813477 C88.65835892 173.33094925 87.87805817 173.32376373 87.07411194 173.31636047 C82.91202696 173.33379224 79.66113825 173.69411615 75.91912842 175.56860352 Z " fill="#DF582C" transform="translate(377.08087158203125,239.431396484375)"/>
<path d="M0 0 C14.99307357 13.80502593 24.55835501 31.28423327 25.60668945 51.92138672 C25.68655288 54.52350039 25.71697233 57.12184904 25.73242188 59.72509766 C25.76335937 61.05154297 25.76335937 61.05154297 25.79492188 62.40478516 C25.83348392 68.78680329 25.83348392 68.78680329 24.19335938 72.00244141 C21.35140409 74.44859927 18.11575003 75.09303583 14.48242188 75.47509766 C13.11930235 75.37091157 11.75935359 75.21548538 10.40698242 75.01538086 C5.02353853 74.34745585 -0.26948184 74.42065706 -5.68554688 74.51806641 C-7.81639714 74.54043615 -9.94725714 74.56189354 -12.078125 74.58251953 C-15.40285902 74.61969903 -18.72708953 74.66298788 -22.05151367 74.72192383 C-25.28376587 74.77642539 -28.51545012 74.80549582 -31.74804688 74.83056641 C-33.23415718 74.8662397 -33.23415718 74.8662397 -34.75028992 74.90263367 C-40.66197812 74.9250355 -44.02201915 74.43139166 -48.51757812 70.47509766 C-49.89321533 67.72382325 -49.74547208 65.29330955 -49.89257812 62.22509766 C-50.35116986 55.92293542 -51.24255497 51.95694109 -55.58007812 47.22509766 C-65.16526468 41.51477375 -76.97155538 43.27344252 -87.50195312 44.64697266 C-91.0252244 45.61450311 -92.89202622 46.96028959 -95.51757812 49.47509766 C-98.90314248 55.66250838 -99.27733816 60.43605753 -97.58007812 67.22509766 C-96.89836679 69.31033234 -96.21133125 71.39383827 -95.51757812 73.47509766 C-93.22566629 74.61845529 -93.22566629 74.61845529 -90.51757812 75.47509766 C-89.70522705 75.78769531 -88.89287598 76.10029297 -88.0559082 76.42236328 C-81.19227549 78.97228755 -74.26716689 81.0513492 -67.20507812 82.97509766 C-64.98890006 83.58826241 -62.77275395 84.20154268 -60.55664062 84.81494141 C-58.54372902 85.368724 -56.53072026 85.9221537 -54.51757812 86.47509766 C-49.83631394 87.76126109 -45.16764599 89.07953847 -40.51757812 90.47509766 C-39.83711426 90.67925293 -39.15665039 90.8834082 -38.45556641 91.09375 C-27.19997528 94.51979614 -16.8394794 98.83312368 -6.51757812 104.47509766 C-5.38964844 105.08740234 -4.26171875 105.69970703 -3.09960938 106.33056641 C5.84100462 111.36174422 12.40722839 116.60098118 18.10742188 125.16259766 C18.58179688 125.86666748 19.05617188 126.5707373 19.54492188 127.29614258 C31.14234084 144.84644942 32.72523383 162.37923392 32.44604492 182.89868164 C32.43742432 183.72311768 32.42880371 184.54755371 32.41992188 185.39697266 C32.40251953 186.50443848 32.40251953 186.50443848 32.38476562 187.63427734 C32.36476525 189.57245317 32.36476525 189.57245317 33.48242188 191.47509766 C32.82242188 191.47509766 32.16242188 191.47509766 31.48242188 191.47509766 C31.44117188 192.60947266 31.39992188 193.74384766 31.35742188 194.91259766 C29.05550701 214.96763674 17.68029745 232.74703305 2.48242188 245.47509766 C-11.51672665 255.99608938 -28.37878443 262.45036225 -45.51757812 265.47509766 C-47.38736328 265.81154297 -47.38736328 265.81154297 -49.29492188 266.15478516 C-66.50064052 268.74718446 -84.38213181 268.38903986 -101.51757812 265.47509766 C-103.37189453 265.183125 -103.37189453 265.183125 -105.26367188 264.88525391 C-120.81167429 262.15100582 -133.74453448 256.63666874 -146.51757812 247.47509766 C-147.45730469 246.80220703 -148.39703125 246.12931641 -149.36523438 245.43603516 C-162.28257536 235.65548437 -170.86543811 220.85915854 -175.51757812 205.47509766 C-175.83662109 204.46769531 -175.83662109 204.46769531 -176.16210938 203.43994141 C-179.16394479 192.92271947 -180.99877108 177.71782441 -176.51757812 167.47509766 C-172.54614302 164.37813229 -168.82875088 163.94612572 -163.94726562 163.78759766 C-163.20942841 163.7541626 -162.47159119 163.72072754 -161.71139526 163.6862793 C-152.69242694 163.32329078 -143.66640259 163.40171903 -134.64257812 163.47509766 C-131.27018609 163.50172681 -127.89784783 163.52161263 -124.52539062 163.53759766 C-123.38180588 163.55004517 -123.38180588 163.55004517 -122.21511841 163.56274414 C-119.03715193 163.57761967 -116.55665475 163.4881232 -113.51757812 162.47509766 C-109.21982673 162.87875386 -105.52830273 163.74232232 -102.01757812 166.28759766 C-99.25280908 170.31955252 -99.46865991 174.35895393 -99.70507812 179.10009766 C-99.73657043 185.47729012 -98.71084179 190.89880141 -95.51757812 196.47509766 C-88.57953738 202.40134079 -77.96208241 202.93358966 -69.10351562 202.73291016 C-62.61600568 202.08611913 -55.41243214 201.07070295 -50.51757812 196.47509766 C-46.39217243 189.53575784 -45.18249201 182.04596057 -47.06054688 174.20947266 C-48.87085081 168.8085659 -51.27180855 165.60389236 -56.48632812 162.98291016 C-64.45162931 159.8637546 -72.45390585 157.19381427 -80.66748047 154.80249023 C-87.90521867 152.69142594 -95.05007635 150.34823777 -102.18798828 147.92260742 C-106.3280581 146.52000792 -110.47047838 145.17967082 -114.66601562 143.95166016 C-125.67725645 140.67616447 -135.51670922 135.80490185 -145.08007812 129.47509766 C-145.81742188 128.98920166 -146.55476563 128.50330566 -147.31445312 128.00268555 C-163.23463028 117.1264352 -172.8420895 100.20603507 -176.51757812 81.47509766 C-176.66050293 80.75354492 -176.80342773 80.03199219 -176.95068359 79.28857422 C-179.16561189 67.24340595 -178.15140501 56.36876464 -175.51757812 44.47509766 C-175.24816406 43.22728516 -174.97875 41.97947266 -174.70117188 40.69384766 C-169.79810618 21.16953225 -157.64209131 5.23920136 -141.01757812 -6.02490234 C-128.70289967 -13.29414943 -115.40569536 -17.47989725 -101.51757812 -20.52490234 C-100.39480469 -20.77240234 -99.27203125 -21.01990234 -98.11523438 -21.27490234 C-65.46987735 -27.08569519 -25.71073986 -22.43598844 0 0 Z " fill="#1B3149" transform="translate(353.517578125,261.52490234375)"/>
<path d="M0 0 C5.56495883 0.57374656 11.03467312 0.69748911 16.62518311 0.66625977 C18.13762352 0.66406937 18.13762352 0.66406937 19.68061829 0.66183472 C21.85212451 0.65805519 24.02362773 0.65196711 26.19512177 0.64376831 C29.65523393 0.63086397 33.11530713 0.62445213 36.57543945 0.61962891 C45.176941 0.60633986 53.77840578 0.58227891 62.37988281 0.55822754 C69.64718685 0.53828981 76.91447622 0.52273006 84.18180084 0.51266479 C87.54843315 0.50630209 90.91500338 0.4937917 94.28161621 0.48095703 C104.67811024 0.45527855 115.05800893 0.55787018 125.44744873 0.96313477 C126.37337704 0.99583969 127.29930534 1.02854462 128.25329208 1.0622406 C140.25744129 1.59841948 151.52815662 4.36145535 161.91912842 10.56860352 C162.84467529 11.11774414 163.77022217 11.66688477 164.72381592 12.23266602 C180.13955283 21.71605972 191.42277741 35.84573491 196.09100342 53.62719727 C200.22368324 72.05598773 198.54152226 92.60195756 189.91912842 109.56860352 C184.15004246 118.58073205 177.27400918 127.18246005 167.91912842 132.56860352 C167.58912842 133.55860352 167.25912842 134.54860352 166.91912842 135.56860352 C168.12569092 135.90891602 168.12569092 135.90891602 169.35662842 136.25610352 C187.18834441 142.82568309 201.96816884 157.4599187 209.91912842 174.56860352 C211.68156095 179.12098716 212.88460363 183.80240003 213.91912842 188.56860352 C214.19176514 189.7790332 214.19176514 189.7790332 214.46990967 191.01391602 C216.9620129 205.18639876 216.15498988 219.82439481 211.91912842 233.56860352 C211.58912842 233.56860352 211.25912842 233.56860352 210.91912842 233.56860352 C211.07897217 232.38524414 211.23881592 231.20188477 211.40350342 229.98266602 C214.04027312 206.05538348 213.82328706 179.96137452 198.40740967 160.20922852 C189.08337641 149.10951793 176.68501975 142.06646309 163.91912842 135.56860352 C165.34942802 132.098245 166.99999725 130.5289661 170.04412842 128.38110352 C183.92302253 117.91066975 191.36007095 103.35440578 194.91912842 86.56860352 C196.4140214 64.58645995 194.32738622 45.30495162 179.93475342 27.75219727 C168.03621934 14.86211869 152.77244123 8.20202175 135.91912842 4.56860352 C135.15078832 4.39182351 134.38244822 4.21504351 133.59082508 4.03290653 C130.66310732 3.52411068 127.93659533 3.44570283 124.96495056 3.448349 C123.77168152 3.44697433 122.57841248 3.44559967 121.34898376 3.44418335 C120.04850601 3.44777863 118.74802826 3.4513739 117.40814209 3.45507812 C116.01825971 3.45536034 114.62837717 3.45520159 113.23849487 3.45463562 C109.47236904 3.454349 105.70627512 3.46022392 101.9401567 3.46720958 C98.00169649 3.47346558 94.06323553 3.47404869 90.12477112 3.47523499 C82.66986947 3.47834167 75.2149825 3.48654614 67.76008731 3.49658448 C59.27162219 3.50776617 50.78315637 3.51326125 42.29468572 3.51827991 C24.83615813 3.5287293 7.37764483 3.54631593 -10.08087158 3.56860352 C-9.25068158 8.16349565 -6.54869501 9.93962776 -3.01837158 12.69360352 C11.63669672 24.66487133 20.549601 40.29221479 24.91912842 58.56860352 C24.91912842 59.88860352 24.91912842 61.20860352 24.91912842 62.56860352 C25.57912842 62.56860352 26.23912842 62.56860352 26.91912842 62.56860352 C28.88213921 70.33301227 29.1783569 77.58922695 28.91912842 85.56860352 C28.89979248 86.37313965 28.88045654 87.17767578 28.86053467 88.0065918 C28.7931451 90.67393052 28.70288028 93.33966038 28.60662842 96.00610352 C28.57315308 97.28493408 28.57315308 97.28493408 28.53900146 98.58959961 C28.32230423 103.54868886 27.8311478 107.3638341 24.91912842 111.56860352 C21.3266904 112.97215577 17.55297937 112.681857 13.74725342 112.66625977 C12.72362701 112.66413734 12.72362701 112.66413734 11.67932129 112.66197205 C9.50921158 112.65639436 7.33920671 112.64384605 5.16912842 112.63110352 C3.6938695 112.62608563 2.21860895 112.62152323 0.74334717 112.61743164 C-2.86475956 112.60643226 -6.47280533 112.58918304 -10.08087158 112.56860352 C-8.35481065 115.65483525 -6.89042364 118.05702205 -4.01446533 120.13891602 C-3.4466333 120.56043945 -2.87880127 120.98196289 -2.29376221 121.41625977 C-1.7078833 121.8377832 -1.12200439 122.25930664 -0.51837158 122.69360352 C5.67390549 127.20076912 5.67390549 127.20076912 7.91912842 130.56860352 C1.99758284 127.91949102 -2.97080447 123.50519727 -8.08087158 119.56860352 C-8.76794189 119.04137695 -9.45501221 118.51415039 -10.16290283 117.97094727 C-12.79192796 115.87924114 -13.99341444 114.83097495 -15.08087158 111.56860352 C-12.79782229 108.73851552 -11.68848665 107.6531885 -8.02227783 107.14282227 C-6.90723877 107.18020508 -5.79219971 107.21758789 -4.64337158 107.25610352 C-3.53091064 107.2805957 -2.41844971 107.30508789 -1.27227783 107.33032227 C1.91912842 107.56860352 1.91912842 107.56860352 4.70428467 108.15063477 C6.94934553 108.80571124 6.94934553 108.80571124 8.91912842 107.56860352 C10.40412842 108.06360352 10.40412842 108.06360352 11.91912842 108.56860352 C13.98057949 108.63759452 16.04414243 108.65328078 18.10662842 108.63110352 C19.19330811 108.62208008 20.27998779 108.61305664 21.39959717 108.60375977 C22.23104248 108.5921582 23.06248779 108.58055664 23.91912842 108.56860352 C25.43374232 75.9820803 25.26122653 47.33183541 2.91912842 21.56860352 C1.25471943 20.23245297 -0.41130022 18.89829785 -2.08087158 17.56860352 C-2.08087158 16.90860352 -2.08087158 16.24860352 -2.08087158 15.56860352 C-2.61712158 15.34172852 -3.15337158 15.11485352 -3.70587158 14.88110352 C-7.83639692 12.59844478 -11.51282905 10.3944545 -12.95587158 5.75610352 C-13.01774658 4.67329102 -13.01774658 4.67329102 -13.08087158 3.56860352 C-8.66153719 -0.06156402 -5.62970096 -0.66390469 0 0 Z " fill="#E5C4BB" transform="translate(377.08087158203125,239.431396484375)"/>
<path d="M0 0 C0 3.45117782 -0.51016731 4.0457245 -2.5625 6.6875 C-3.10390625 7.38617188 -3.6453125 8.08484375 -4.203125 8.8046875 C-6.57250643 11.6994535 -9.05124313 14.48402398 -11.58203125 17.23828125 C-13.21127255 19.05300395 -13.21127255 19.05300395 -14 22 C-15.99609375 23.82421875 -15.99609375 23.82421875 -18.4375 25.6875 C-19.24058594 26.31011719 -20.04367187 26.93273437 -20.87109375 27.57421875 C-23 29 -23 29 -25 29 C-25 29.99 -25 30.98 -25 32 C-23.79034576 31.98747192 -22.58069153 31.97494385 -21.3343811 31.96203613 C-9.72173053 31.84205382 1.89094191 31.72441198 13.50363731 31.60884857 C19.46841989 31.54942073 25.43319306 31.48927255 31.39794922 31.42724609 C38.31475651 31.35543117 45.23158696 31.28626515 52.1484375 31.21875 C53.28361565 31.20751099 54.41879379 31.19627197 55.58837128 31.18469238 C67.58423512 31.06808072 79.57870762 30.98172768 91.57519531 31.00390625 C93.05063403 31.00637234 93.05063403 31.00637234 94.55587959 31.00888824 C99.14356926 31.01817629 103.73107983 31.03470644 108.31869507 31.06237793 C109.92812069 31.06834266 111.53754654 31.0742465 113.14697266 31.08007812 C113.86110447 31.0868306 114.57523628 31.09358307 115.31100845 31.10054016 C119.31558918 31.11055678 123.07115885 30.77505508 127 30 C127 29.67 127 29.34 127 29 C127.55236328 28.95101562 128.10472656 28.90203125 128.67382812 28.8515625 C146.111925 27.17565592 159.69559643 22.69587937 173 11 C173.6909375 10.41605469 174.381875 9.83210938 175.09375 9.23046875 C176.74135924 7.83457759 178.37272205 6.41954034 180 5 C176.06593043 13.63989441 167.93980862 18.39157961 160 23 C159.25363281 23.44214844 158.50726562 23.88429688 157.73828125 24.33984375 C152.27973838 27.32156089 146.51640684 29.31492971 140.625 31.25 C139.85865234 31.5085376 139.09230469 31.7670752 138.30273438 32.03344727 C127.52163528 35.42686836 116.20292408 35.15177853 105.00146484 35.18945312 C103.64334876 35.19741844 102.28523511 35.2058081 100.92712402 35.21458435 C98.02986755 35.23247483 95.13261582 35.24754699 92.23533249 35.26036072 C87.65511367 35.28075797 83.07495505 35.30837746 78.49478149 35.33703613 C67.96086832 35.40188422 57.42691145 35.45775152 46.89294434 35.51302338 C37.20416332 35.56389007 27.51540481 35.61667659 17.82668078 35.67754889 C13.27113988 35.7058948 8.71560646 35.72948825 4.16002154 35.74947357 C1.33669054 35.76283261 -1.48660472 35.78024374 -4.30990601 35.79878426 C-6.24885394 35.81027106 -8.18782919 35.81680987 -10.12680054 35.82322693 C-11.84664154 35.83574242 -11.84664154 35.83574242 -13.60122681 35.84851074 C-14.60145685 35.85366447 -15.6016869 35.85881821 -16.63222694 35.86412811 C-19.01851848 35.84457685 -19.01851848 35.84457685 -21 37 C-22.875 36.73046875 -22.875 36.73046875 -25 36.1875 C-25.70125 36.01605469 -26.4025 35.84460938 -27.125 35.66796875 C-29 35 -29 35 -31 33 C-30.9375 31.109375 -30.9375 31.109375 -30 29 C-27.8125 27.140625 -27.8125 27.140625 -25 25.25 C-16.63008304 19.38780135 -9.87057045 13.36868553 -4 5 C-2.67518731 3.32655239 -1.34592097 1.65651812 0 0 Z " fill="#C96545" transform="translate(395,492)"/>
<path d="M0 0 C4.99872122 -0.09935536 9.99685955 -0.17169622 14.99633789 -0.21972656 C16.69468202 -0.23976221 18.39295785 -0.26699885 20.09106445 -0.30175781 C22.5413504 -0.35063415 24.9907194 -0.37304872 27.44140625 -0.390625 C28.56839684 -0.42159271 28.56839684 -0.42159271 29.71815491 -0.45318604 C35.24758489 -0.45550557 38.44266915 0.84304773 43 4 C44.4375 6.25 44.4375 6.25 45 8 C45.66 8 46.32 8 47 8 C48.5012846 14.14195136 48.00196886 20.34316308 47.81298828 26.60961914 C47.7505005 28.79499618 47.70885382 30.98014194 47.66796875 33.16601562 C47.32290105 47.22752446 47.32290105 47.22752446 44 53 C38.96617736 56.32400378 34.69360437 56.40241092 28.8828125 56.29296875 C28.02565643 56.28872391 27.16850037 56.28447906 26.28536987 56.28010559 C23.56491836 56.26339886 20.84522518 56.22576219 18.125 56.1875 C16.27344825 56.17244278 14.42188481 56.1587562 12.5703125 56.14648438 C8.04658567 56.11352165 3.52342113 56.06179537 -1 56 C-1 55.34 -1 54.68 -1 54 C-1.99 54 -2.98 54 -4 54 C-5.23795982 49.17905722 -5.16169995 44.44151477 -5.16796875 39.5 C-5.17129715 38.58669922 -5.17462555 37.67339844 -5.17805481 36.73242188 C-5.18310584 34.80599469 -5.1854637 32.8795588 -5.18530273 30.953125 C-5.18749236 28.01027024 -5.20567599 25.06778866 -5.22460938 22.125 C-5.22754307 20.25000128 -5.22952802 18.37500078 -5.23046875 16.5 C-5.23765427 15.62279297 -5.24483978 14.74558594 -5.25224304 13.84179688 C-5.23583004 9.4440807 -5.06827109 6.00026273 -3 2 C-2.01 2 -1.02 2 0 2 C0 1.34 0 0.68 0 0 Z M11.8125 3.1875 C10.90387207 3.20522461 9.99524414 3.22294922 9.05908203 3.24121094 C5.30568246 3.40602526 2.69532884 3.60102366 -0.59375 5.48828125 C-2.71948969 9.28508854 -2.46607314 12.7272541 -2.3125 17 C-2.30283203 17.80695313 -2.29316406 18.61390625 -2.28320312 19.4453125 C-2.22480308 23.78432719 -2.22480308 23.78432719 -1.45776367 28.03515625 C-0.84013759 30.68617209 -1.35535463 33.04782067 -1.734375 35.7109375 C-2.74891487 44.18852607 -2.74891487 44.18852607 0 52 C3.01738114 53.50869057 6.14604173 53.18351891 9.45703125 53.203125 C10.56699715 53.21167511 10.56699715 53.21167511 11.6993866 53.22039795 C13.26710581 53.22985018 14.83484491 53.23638282 16.40258789 53.24023438 C18.79283707 53.24992032 21.18221905 53.28093195 23.57226562 53.3125 C25.09634907 53.31903223 26.62043865 53.32428184 28.14453125 53.328125 C28.85615921 53.3404718 29.56778717 53.3528186 30.30097961 53.36553955 C34.70342441 53.34593321 37.59400193 52.86008762 41 50 C43.31229304 46.01621706 43.25760608 42.25935915 43.265625 37.72265625 C43.26753845 37.03368759 43.2694519 36.34471893 43.27142334 35.63487244 C43.27277908 34.18341708 43.26912544 32.73194935 43.26074219 31.28051758 C43.25004988 29.07279876 43.26064926 26.86589659 43.2734375 24.65820312 C43.27211548 23.24218572 43.2695522 21.82616882 43.265625 20.41015625 C43.26336914 19.13277588 43.26111328 17.85539551 43.25878906 16.53930664 C42.95003777 12.31669587 42.15107625 8.71561683 39.7734375 5.171875 C33.14428174 0.7913756 19.47239952 2.94643105 11.8125 3.1875 Z " fill="#CF5832" transform="translate(454,299)"/>
<path d="M0 0 C12.43891986 11.45326276 22.95878219 26.53359877 24.72460938 43.85009766 C24.73242188 45.78759766 24.73242188 45.78759766 24.48242188 48.47509766 C24.15242187 48.47509766 23.82242188 48.47509766 23.48242188 48.47509766 C23.28648437 47.50572266 23.09054687 46.53634766 22.88867188 45.53759766 C18.54008811 25.50485275 8.80301773 7.9385202 -8.63867188 -3.58740234 C-17.10941619 -8.78602754 -26.01817813 -12.63972262 -35.51757812 -15.52490234 C-36.20899902 -15.73663086 -36.90041992 -15.94835937 -37.61279297 -16.16650391 C-68.70276982 -25.13873139 -107.13207395 -21.33230244 -135.44360352 -6.10449219 C-152.79684003 3.64181871 -165.31382745 18.53385888 -171.51757812 37.47509766 C-177.6863605 61.28659762 -176.22071177 86.32554829 -163.62939453 107.73583984 C-160.79412973 112.17115526 -157.31444595 115.85999478 -153.51757812 119.47509766 C-152.89367187 120.09513672 -152.26976562 120.71517578 -151.62695312 121.35400391 C-143.58178969 128.90902083 -133.68511785 134.33914929 -123.51757812 138.47509766 C-126.51757812 139.47509766 -126.51757812 139.47509766 -129.38085938 138.39306641 C-149.68327455 128.20737 -166.41582458 114.53058586 -173.8215332 92.27441406 C-178.72234388 75.93837846 -179.1976034 61.09312043 -175.51757812 44.47509766 C-175.24816406 43.22728516 -174.97875 41.97947266 -174.70117188 40.69384766 C-169.79810618 21.16953225 -157.64209131 5.23920136 -141.01757812 -6.02490234 C-128.70289967 -13.29414943 -115.40569536 -17.47989725 -101.51757812 -20.52490234 C-100.39480469 -20.77240234 -99.27203125 -21.01990234 -98.11523438 -21.27490234 C-65.46987735 -27.08569519 -25.71073986 -22.43598844 0 0 Z " fill="#C0CAD4" transform="translate(353.517578125,261.52490234375)"/>
<path d="M0 0 C0.94681641 -0.02449219 1.89363281 -0.04898437 2.86914062 -0.07421875 C10.34575584 -0.10509259 16.56470782 1.26412411 22.34375 6.2265625 C22.7871875 6.81179688 23.230625 7.39703125 23.6875 8 C24.1515625 8.59039062 24.615625 9.18078125 25.09375 9.7890625 C27.87341801 13.81958111 27.5215587 18.14573284 27.70507812 22.87695312 C27.89465642 26.52901807 28.11110657 28.26040985 30.1875 31.375 C26.3125 29.625 26.3125 29.625 25.1875 27.375 C25.032265 25.29370116 24.91245066 23.20968526 24.8125 21.125 C24.35390826 14.82283776 23.46252315 10.85684344 19.125 6.125 C9.53981344 0.41467609 -2.26647726 2.17334486 -12.796875 3.546875 C-16.32014627 4.51440545 -18.1869481 5.86019194 -20.8125 8.375 C-24.19806436 14.56241072 -24.57226003 19.33595987 -22.875 26.125 C-22.19328866 28.21023468 -21.50625313 30.29374062 -20.8125 32.375 C-18.52058817 33.51835764 -18.52058817 33.51835764 -15.8125 34.375 C-15.00014893 34.68759766 -14.18779785 35.00019531 -13.35083008 35.32226562 C-6.48719736 37.87218989 0.43791124 39.95125154 7.5 41.875 C9.71617807 42.48816475 11.93232418 43.10144503 14.1484375 43.71484375 C16.16134911 44.26862634 18.17435786 44.82205604 20.1875 45.375 C24.86876418 46.66116343 29.53743214 47.97944082 34.1875 49.375 C35.2081958 49.68123291 35.2081958 49.68123291 36.24951172 49.99365234 C47.50510285 53.41969849 57.86559872 57.73302603 68.1875 63.375 C69.31542969 63.98730469 70.44335938 64.59960938 71.60546875 65.23046875 C80.54608274 70.26164656 87.11230652 75.50088353 92.8125 84.0625 C93.286875 84.76656982 93.76125 85.47063965 94.25 86.19604492 C105.84741896 103.74635176 107.43031195 121.27913626 107.15112305 141.79858398 C107.14250244 142.62302002 107.13388184 143.44745605 107.125 144.296875 C107.10759766 145.40434082 107.10759766 145.40434082 107.08984375 146.53417969 C107.06984337 148.47235551 107.06984337 148.47235551 108.1875 150.375 C107.5275 150.375 106.8675 150.375 106.1875 150.375 C106.13851562 151.00148438 106.08953125 151.62796875 106.0390625 152.2734375 C105.96429688 153.09070313 105.88953125 153.90796875 105.8125 154.75 C105.74289062 155.56210937 105.67328125 156.37421875 105.6015625 157.2109375 C105.1875 159.375 105.1875 159.375 103.1875 161.375 C103.34734375 160.07304687 103.5071875 158.77109375 103.671875 157.4296875 C104.35518441 150.54570868 104.40967879 143.66419395 104.42773438 136.75341797 C104.43745225 134.51101739 104.46857894 132.26953113 104.5 130.02734375 C104.62902843 112.52756076 100.01900185 97.32207991 89.1875 83.375 C88.72730469 82.74980469 88.26710938 82.12460937 87.79296875 81.48046875 C71.57654342 60.77765486 39.78626771 52.55563725 15.45361328 46.90869141 C-16.8450756 39.30204048 -16.8450756 39.30204048 -23.1875 31.734375 C-26.76394297 25.82330954 -26.67593509 19.06444158 -25.8125 12.375 C-23.32304866 7.11949162 -19.67129152 3.62263586 -14.32421875 1.2890625 C-9.51684435 0.03775481 -4.94800408 0.00665502 0 0 Z " fill="#BFC8D2" transform="translate(278.8125,302.625)"/>
<path d="M0 0 C0.97821716 -0.01591187 1.95643433 -0.03182373 2.96429443 -0.04821777 C4.02054016 -0.04841919 5.07678589 -0.04862061 6.16503906 -0.04882812 C7.25399475 -0.05644165 8.34295044 -0.06405518 9.46490479 -0.07189941 C11.77150174 -0.08271281 14.0781477 -0.08554852 16.38476562 -0.08105469 C19.90350932 -0.0800856 23.42004967 -0.12162841 26.93847656 -0.16601562 C29.18065952 -0.17122506 31.42285005 -0.17391078 33.66503906 -0.17382812 C34.71318787 -0.19022339 35.76133667 -0.20661865 36.84124756 -0.22351074 C42.45735166 -0.17076665 46.45814706 0.23930698 50.82939148 3.95675659 C56.3602258 9.945574 55.67358699 17.06403878 55.62670898 24.67773438 C55.61821258 26.78290104 55.64697509 28.88533599 55.67871094 30.99023438 C55.7614559 45.04353804 55.7614559 45.04353804 51.18066406 50.41992188 C45.29369069 54.7266456 39.3309876 55.00994968 32.25878906 54.95117188 C31.23638123 54.95499878 30.21397339 54.95882568 29.1605835 54.96276855 C27.01248177 54.96547713 24.86434646 54.95819032 22.71630859 54.94140625 C19.42634098 54.91989361 16.13853513 54.94128995 12.84863281 54.96679688 C10.75618008 54.96415514 8.66372869 54.95903337 6.57128906 54.95117188 C5.58896301 54.9592688 4.60663696 54.96736572 3.59454346 54.97570801 C-0.23558489 54.92292052 -3.0175211 54.84030461 -6.43774414 53.04711914 C-8.67615485 48.7906184 -8.36873067 44.58870258 -8.31542969 39.85351562 C-8.31688492 38.82307632 -8.31834015 37.79263702 -8.31983948 36.73097229 C-8.31818078 34.55475026 -8.30662285 32.37851647 -8.28588867 30.20239258 C-8.25691213 26.86619433 -8.26528513 23.53158265 -8.27832031 20.1953125 C-8.27208362 18.08137247 -8.26369322 15.96743746 -8.25292969 13.85351562 C-8.25586533 12.85348007 -8.25880096 11.85344452 -8.26182556 10.82310486 C-8.24914139 9.89526688 -8.23645721 8.96742889 -8.22338867 8.01147461 C-8.21798569 7.19525131 -8.2125827 6.37902802 -8.20701599 5.53807068 C-7.33204197 0.75751733 -4.44652309 0.04350663 0 0 Z M-5.81933594 3.41992188 C-7.15512618 14.72643211 -7.00299409 26.05472323 -6.81933594 37.41992188 C-6.81208496 38.15146484 -6.80483398 38.88300781 -6.79736328 39.63671875 C-6.77090595 41.46092914 -6.70336618 43.28442243 -6.63183594 45.10742188 C-6.59703125 46.08066406 -6.56222656 47.05390625 -6.52636719 48.05664062 C-6.01718341 50.59006232 -6.01718341 50.59006232 -3.73046875 52.04711914 C-0.11989658 53.74975645 2.48009214 53.77714894 6.46582031 53.74804688 C7.16275497 53.74617371 7.85968964 53.74430054 8.57774353 53.74237061 C10.05114535 53.73566776 11.52452991 53.72178835 12.99780273 53.70117188 C15.21192694 53.67035662 17.42533204 53.66022477 19.63964844 53.65429688 C36.30622327 54.35969174 36.30622327 54.35969174 51.18066406 48.41992188 C53.68197772 44.83502185 53.50328123 41.01756565 53.51660156 36.80273438 C53.52325836 36.06795868 53.52991516 35.33318298 53.53677368 34.57614136 C53.54687854 33.02458186 53.55159137 31.47297909 53.55126953 29.92138672 C53.55563713 27.55948478 53.59195978 25.19946151 53.62988281 22.83789062 C53.6357528 21.32617822 53.63972098 19.814457 53.64160156 18.30273438 C53.6559726 17.60254181 53.67034363 16.90234924 53.68515015 16.18093872 C53.63867969 11.1410618 52.31193504 8.31692493 49.18066406 4.41992188 C43.79484441 0.38055714 34.74848119 1.26127536 28.26269531 1.25195312 C27.44242355 1.24862473 26.62215179 1.24529633 25.77702332 1.24186707 C24.05683955 1.236839 22.33664618 1.23445745 20.61645508 1.23461914 C17.98990996 1.23241915 15.36377649 1.2141833 12.73730469 1.1953125 C11.05826965 1.19238036 9.37923264 1.19039436 7.70019531 1.18945312 C6.91989456 1.18226761 6.13959381 1.17508209 5.33564758 1.16767883 C1.1735626 1.1851106 -2.0773261 1.54543451 -5.81933594 3.41992188 Z " fill="#E7C4B9" transform="translate(458.8193359375,411.580078125)"/>
<path d="M0 0 C0 4.75695089 -3.08278794 7.41151549 -6 11 C-6.56847656 11.71671875 -7.13695312 12.4334375 -7.72265625 13.171875 C-12.16047353 18.48594919 -17.06100444 22.58318012 -22.69555664 26.55029297 C-25.88529261 28.85485944 -27.30571513 30.13343766 -28 34 C-9.70042715 33.93917476 8.59899522 33.86147347 26.8984108 33.76428509 C35.39726767 33.71953091 43.89608453 33.68007075 52.39501953 33.65356445 C59.81226263 33.63041774 67.22937693 33.59683805 74.64651752 33.55129844 C78.56515763 33.52758814 82.48367197 33.50871554 86.4023819 33.50238609 C118.74438872 33.44318724 151.4374536 32.22713281 175.70703125 8.22265625 C178 6 178 6 180 5 C176.06593043 13.63989441 167.93980862 18.39157961 160 23 C159.25363281 23.44214844 158.50726562 23.88429688 157.73828125 24.33984375 C152.27973838 27.32156089 146.51640684 29.31492971 140.625 31.25 C139.85865234 31.5085376 139.09230469 31.7670752 138.30273438 32.03344727 C127.52163528 35.42686836 116.20292408 35.15177853 105.00146484 35.18945312 C103.64334876 35.19741844 102.28523511 35.2058081 100.92712402 35.21458435 C98.02986755 35.23247483 95.13261582 35.24754699 92.23533249 35.26036072 C87.65511367 35.28075797 83.07495505 35.30837746 78.49478149 35.33703613 C67.96086832 35.40188422 57.42691145 35.45775152 46.89294434 35.51302338 C37.20416332 35.56389007 27.51540481 35.61667659 17.82668078 35.67754889 C13.27113988 35.7058948 8.71560646 35.72948825 4.16002154 35.74947357 C1.33669054 35.76283261 -1.48660472 35.78024374 -4.30990601 35.79878426 C-6.24885394 35.81027106 -8.18782919 35.81680987 -10.12680054 35.82322693 C-11.84664154 35.83574242 -11.84664154 35.83574242 -13.60122681 35.84851074 C-14.60145685 35.85366447 -15.6016869 35.85881821 -16.63222694 35.86412811 C-19.01851848 35.84457685 -19.01851848 35.84457685 -21 37 C-22.875 36.73046875 -22.875 36.73046875 -25 36.1875 C-25.70125 36.01605469 -26.4025 35.84460938 -27.125 35.66796875 C-29 35 -29 35 -31 33 C-30.9375 31.109375 -30.9375 31.109375 -30 29 C-27.8125 27.140625 -27.8125 27.140625 -25 25.25 C-16.63008304 19.38780135 -9.87057045 13.36868553 -4 5 C-2.67518731 3.32655239 -1.34592097 1.65651812 0 0 Z " fill="#E9C5BA" transform="translate(395,492)"/>
<path d="M0 0 C0.33 0 0.66 0 1 0 C1.56567512 20.21764782 1.56567512 20.21764782 -2 30 C-2.38285156 31.32837891 -2.38285156 31.32837891 -2.7734375 32.68359375 C-6.69148904 45.35435674 -16.50112984 57.37943839 -28 64 C-28.33 64.99 -28.66 65.98 -29 67 C-28.195625 67.226875 -27.39125 67.45375 -26.5625 67.6875 C-8.73078401 74.25707957 6.04904042 88.89131519 14 106 C15.76243253 110.55238364 16.96547521 115.23379651 18 120 C18.18175781 120.80695313 18.36351562 121.61390625 18.55078125 122.4453125 C21.04288448 136.61779524 20.23586146 151.25579129 16 165 C15.67 165 15.34 165 15 165 C15.15984375 163.81664062 15.3196875 162.63328125 15.484375 161.4140625 C18.12114471 137.48677996 17.90415864 111.392771 2.48828125 91.640625 C-6.83575201 80.54091442 -19.23410867 73.49785958 -32 67 C-30.56970039 63.52964148 -28.91913117 61.96036258 -25.875 59.8125 C-11.89565762 49.26628665 -4.73760227 34.81721999 -1 18 C-0.85966422 16.560265 -0.75583143 15.11662851 -0.68359375 13.671875 C-0.64169922 12.87265625 -0.59980469 12.0734375 -0.55664062 11.25 C-0.51732422 10.425 -0.47800781 9.6 -0.4375 8.75 C-0.39431641 7.90953125 -0.35113281 7.0690625 -0.30664062 6.203125 C-0.20091457 4.13559329 -0.09998705 2.06781719 0 0 Z " fill="#E6C2B8" transform="translate(573,308)"/>
<path d="M0 0 C18.22867012 -0.04678042 36.4573246 -0.08201842 54.68604183 -0.10362434 C63.1504969 -0.11392428 71.61491462 -0.12796003 80.0793457 -0.15087891 C87.45941635 -0.17085212 94.83945994 -0.18372576 102.21955687 -0.18817699 C106.1250068 -0.19077772 110.03037932 -0.19686372 113.93580437 -0.21146011 C117.61704066 -0.22510622 121.29816815 -0.22920853 124.97942734 -0.22621536 C126.96369062 -0.22702183 128.94794225 -0.23774651 130.93217468 -0.24884033 C137.61606098 -0.23351109 143.54261299 0.24498679 150 2 C150 2.33 150 2.66 150 3 C133.24786709 3.02348147 116.49573962 3.04105341 99.74359417 3.05181217 C91.96325311 3.05694301 84.18292234 3.06392358 76.40258789 3.07543945 C69.61205802 3.0854854 62.82153562 3.09187671 56.03099853 3.09408849 C52.44383526 3.09537898 48.85669332 3.09835714 45.26953697 3.10573006 C30.15004101 3.13564499 15.08859338 3.05359201 0 2 C-0.33 2.66 -0.66 3.32 -1 4 C-0.67 2.68 -0.34 1.36 0 0 Z " fill="#CC6543" transform="translate(367,242)"/>
<path d="M0 0 C3.83270527 7.25080098 3.1800977 15.00522831 3 23 C2.98211426 23.81033691 2.96422852 24.62067383 2.94580078 25.45556641 C2.87801227 28.11713125 2.78604046 30.77690767 2.6875 33.4375 C2.66510254 34.28973145 2.64270508 35.14196289 2.61962891 36.02001953 C2.40348905 40.97950006 1.91220663 44.79496022 -1 49 C-4.59243801 50.40355226 -8.36614905 50.11325349 -12.171875 50.09765625 C-13.1955014 50.09553383 -13.1955014 50.09553383 -14.23980713 50.09336853 C-16.40991684 50.08779084 -18.5799217 50.07524254 -20.75 50.0625 C-22.22525892 50.05748211 -23.70051947 50.05291971 -25.17578125 50.04882812 C-28.78388798 50.03782875 -32.39193375 50.02057953 -36 50 C-34.27393906 53.08623174 -32.80955206 55.48841854 -29.93359375 57.5703125 C-29.36576172 57.99183594 -28.79792969 58.41335938 -28.21289062 58.84765625 C-27.62701172 59.26917969 -27.04113281 59.69070313 -26.4375 60.125 C-20.24522293 64.63216561 -20.24522293 64.63216561 -18 68 C-23.92154557 65.35088751 -28.88993289 60.93659375 -34 57 C-34.68707031 56.47277344 -35.37414062 55.94554687 -36.08203125 55.40234375 C-38.71105638 53.31063762 -39.91254285 52.26237144 -41 49 C-38.71695071 46.169912 -37.60761507 45.08458498 -33.94140625 44.57421875 C-32.82636719 44.61160156 -31.71132813 44.64898437 -30.5625 44.6875 C-29.45003906 44.71199219 -28.33757812 44.73648438 -27.19140625 44.76171875 C-24 45 -24 45 -21.21484375 45.58203125 C-18.96978289 46.23710772 -18.96978289 46.23710772 -17 45 C-15.515 45.495 -15.515 45.495 -14 46 C-12.33541327 46.09308544 -10.66718003 46.12996185 -9 46.125 C-7.700625 46.12886719 -7.700625 46.12886719 -6.375 46.1328125 C-3.84988305 46.09594205 -3.84988305 46.09594205 -1 45 C-0.08138216 42.24414648 0.12204322 40.6403931 0.11352539 37.80395508 C0.11344986 36.96331009 0.11337433 36.1226651 0.11329651 35.25654602 C0.10813522 34.35333115 0.10297394 33.45011627 0.09765625 32.51953125 C0.0962413 31.59154221 0.09482635 30.66355316 0.09336853 29.70744324 C0.08776937 26.74242942 0.07521704 23.77749101 0.0625 20.8125 C0.05748489 18.80273547 0.052922 16.79296975 0.04882812 14.78320312 C0.03780021 9.85543968 0.02053617 4.92773263 0 0 Z " fill="#C86B4E" transform="translate(403,302)"/>
<path d="M0 0 C0.75697174 -0.00145523 1.51394348 -0.00291046 2.29385376 -0.00440979 C3.89255629 -0.00275277 5.49127509 0.00878665 7.08984375 0.02954102 C9.52413548 0.05841669 11.95623673 0.05016306 14.390625 0.03710938 C15.94792716 0.04334996 17.50522248 0.05174341 19.0625 0.0625 C19.78456635 0.05956436 20.50663269 0.05662872 21.25057983 0.05360413 C25.93962491 0.14013296 29.19955077 0.98232867 33.1640625 3.49609375 C35.78080134 7.42120201 35.48797807 10.80555676 35.5 15.36328125 C35.5066568 16.23501984 35.5133136 17.10675842 35.52017212 18.00491333 C35.5302964 19.84911998 35.53498921 21.69336325 35.53466797 23.53759766 C35.53903569 26.3538075 35.57534131 29.16844305 35.61328125 31.984375 C35.61915062 33.7773384 35.62311921 35.57030923 35.625 37.36328125 C35.63937103 38.20301483 35.65374207 39.04274841 35.66854858 39.90792847 C35.63696671 43.96658682 35.48169657 45.99418467 33.26025391 49.50439453 C29.41955489 53.15364011 25.81089588 52.68841158 20.76171875 52.734375 C19.92821396 52.74244675 19.09470917 52.75051849 18.23594666 52.75883484 C16.47152792 52.77267297 14.70708244 52.78339634 12.94262695 52.79125977 C10.24053592 52.80850457 7.53965844 52.85239499 4.83789062 52.89648438 C3.12500901 52.90660851 1.41211699 52.91512549 -0.30078125 52.921875 C-1.1102269 52.93938309 -1.91967255 52.95689117 -2.75364685 52.97492981 C-5.90653299 52.96269814 -8.21540068 52.93200991 -10.84228516 51.08666992 C-12.41709128 46.98095303 -12.2833084 42.9821403 -12.26953125 38.62109375 C-12.2747731 37.65961426 -12.28001495 36.69813477 -12.28541565 35.70751953 C-12.29183282 33.67676763 -12.2905028 31.64597854 -12.28198242 29.61523438 C-12.27346776 26.50714039 -12.30224587 23.4008814 -12.33398438 20.29296875 C-12.33559637 18.31901097 -12.3350189 16.34504993 -12.33203125 14.37109375 C-12.34326523 13.44184082 -12.35449921 12.51258789 -12.36607361 11.55517578 C-12.32471488 7.72966001 -12.27649029 5.2353264 -10.29467773 1.90991211 C-6.89480992 -0.04507096 -3.81604764 -0.05903942 0 0 Z M2.9765625 1.68359375 C2.06793457 1.70131836 1.15930664 1.71904297 0.22314453 1.73730469 C-3.53025504 1.90211901 -6.14060866 2.09711741 -9.4296875 3.984375 C-11.55542719 7.78118229 -11.30201064 11.22334785 -11.1484375 15.49609375 C-11.13876953 16.30304688 -11.12910156 17.11 -11.11914062 17.94140625 C-11.06074058 22.28042094 -11.06074058 22.28042094 -10.29370117 26.53125 C-9.67607509 29.18226584 -10.19129213 31.54391442 -10.5703125 34.20703125 C-11.58485237 42.68461982 -11.58485237 42.68461982 -8.8359375 50.49609375 C-5.81855636 52.00478432 -2.68989577 51.67961266 0.62109375 51.69921875 C1.73105965 51.70776886 1.73105965 51.70776886 2.8634491 51.7164917 C4.43116831 51.72594393 5.99890741 51.73247657 7.56665039 51.73632812 C9.95689957 51.74601407 12.34628155 51.7770257 14.73632812 51.80859375 C16.26041157 51.81512598 17.78450115 51.82037559 19.30859375 51.82421875 C20.02022171 51.83656555 20.73184967 51.84891235 21.46504211 51.8616333 C25.86748691 51.84202696 28.75806443 51.35618137 32.1640625 48.49609375 C34.47635554 44.51231081 34.42166858 40.7554529 34.4296875 36.21875 C34.43160095 35.52978134 34.4335144 34.84081268 34.43548584 34.13096619 C34.43684158 32.67951083 34.43318794 31.2280431 34.42480469 29.77661133 C34.41411238 27.56889251 34.42471176 25.36199034 34.4375 23.15429688 C34.43617798 21.73827947 34.4336147 20.32226257 34.4296875 18.90625 C34.42743164 17.62886963 34.42517578 16.35148926 34.42285156 15.03540039 C34.11410027 10.81278962 33.31513875 7.21171058 30.9375 3.66796875 C24.30834424 -0.71253065 10.63646202 1.4425248 2.9765625 1.68359375 Z " fill="#EBC8BC" transform="translate(462.8359375,300.50390625)"/>
<path d="M0 0 C24.255 0.495 24.255 0.495 49 1 C49 1.33 49 1.66 49 2 C48.14222458 2.01213028 48.14222458 2.01213028 47.26712036 2.02450562 C41.33003001 2.11037948 35.39328019 2.20987473 29.45654297 2.31738281 C27.2391531 2.35573134 25.02169976 2.39057371 22.80419922 2.421875 C19.62183911 2.46739826 16.43991818 2.52541319 13.2578125 2.5859375 C12.26194122 2.59748871 11.26606995 2.60903992 10.24002075 2.62094116 C9.31921722 2.64081085 8.3984137 2.66068054 7.44970703 2.68115234 C6.23059128 2.70113785 6.23059128 2.70113785 4.98684692 2.7215271 C2.76959942 2.82899081 2.76959942 2.82899081 1 5 C0.68768896 7.07913232 0.68768896 7.07913232 0.7253418 9.49389648 C0.71580978 10.42503769 0.70627777 11.35617889 0.69645691 12.3155365 C0.69736832 13.32387039 0.69827972 14.33220428 0.69921875 15.37109375 C0.69493362 16.40436295 0.6906485 17.43763214 0.68623352 18.50221252 C0.68048317 20.69035102 0.67999512 22.87850863 0.68432617 25.06665039 C0.68748391 28.42041559 0.6640429 31.77329724 0.63867188 35.12695312 C0.6363988 37.24999888 0.63569543 39.37304702 0.63671875 41.49609375 C0.62290413 43.00555824 0.62290413 43.00555824 0.60881042 44.54551697 C0.61503922 45.47981033 0.62126801 46.4141037 0.62768555 47.37670898 C0.62705612 48.19896469 0.6264267 49.0212204 0.6257782 49.86839294 C0.85494339 52.05862608 0.85494339 52.05862608 2.23828125 53.76469421 C4.488189 55.34231497 5.823162 55.38012156 8.55981445 55.38818359 C9.94188835 55.40236832 9.94188835 55.40236832 11.35188293 55.4168396 C12.34564438 55.41076691 13.33940582 55.40469421 14.36328125 55.3984375 C15.90039009 55.40274277 15.90039009 55.40274277 17.46855164 55.40713501 C19.63813834 55.40917754 21.80774339 55.40363456 23.97729492 55.39111328 C27.28932254 55.37511198 30.60012064 55.3909306 33.91210938 55.41015625 C36.02083602 55.40817289 38.1295619 55.40432729 40.23828125 55.3984375 C41.22597 55.40451019 42.21365875 55.41058289 43.23127747 55.4168396 C48.68167555 55.36146849 52.17436969 54.77960149 57 52 C57.99 52.495 57.99 52.495 59 53 C54.64257082 56.55049785 50.74031421 58.26313436 45.08959961 58.21459961 C44.14189194 58.21056625 43.19418427 58.2065329 42.21775818 58.20237732 C40.70037804 58.1776107 40.70037804 58.1776107 39.15234375 58.15234375 C37.57907066 58.13259239 37.57907066 58.13259239 35.97401428 58.11244202 C33.76082481 58.08006784 31.5477137 58.04188498 29.3347168 57.99829102 C25.94626019 57.93765676 22.5588219 57.91446103 19.16992188 57.89257812 C17.01818931 57.85646814 14.86649271 57.81813208 12.71484375 57.77734375 C11.19442726 57.77383156 11.19442726 57.77383156 9.64329529 57.77024841 C2.81411713 57.58155525 2.81411713 57.58155525 -0.64086914 55.11352539 C-2.6426169 50.52787976 -2.53308162 46.35896628 -2.4609375 41.40625 C-2.46002106 40.38196899 -2.45910461 39.35768799 -2.4581604 38.30236816 C-2.45212844 36.14049638 -2.4363947 33.97863279 -2.41162109 31.81689453 C-2.37512951 28.51173022 -2.37060181 25.20768845 -2.37109375 21.90234375 C-2.36126143 19.7994695 -2.34960393 17.69660283 -2.3359375 15.59375 C-2.33371185 14.60717407 -2.33148621 13.62059814 -2.32919312 12.60412598 C-2.31643341 11.67966675 -2.30367371 10.75520752 -2.29052734 9.80273438 C-2.28290375 8.99396851 -2.27528015 8.18520264 -2.26742554 7.35192871 C-2 5 -2 5 0 0 Z " fill="#CC6B4C" transform="translate(451,410)"/>
<path d="M0 0 C14.31451067 10.49391174 22.26488042 29.97914045 25 47 C27.43626364 64.262729 26.74223797 81.23280146 22 98 C21.67 98 21.34 98 21 98 C21.14262412 96.4372038 21.28925511 94.87477304 21.4375 93.3125 C21.51871094 92.44238281 21.59992188 91.57226562 21.68359375 90.67578125 C22 88 22 88 22.50927734 85.77441406 C23.45099667 80.45018602 23.18591202 75.00414327 23.18530273 69.61010742 C23.18746877 67.46837872 23.20559127 65.32718324 23.22460938 63.18554688 C23.27705091 51.24057918 22.18949033 40.44855693 17.3125 29.4375 C16.78293701 28.21498535 16.78293701 28.21498535 16.24267578 26.96777344 C12.05854795 17.54271165 6.75523906 9.74381063 0 2 C0 1.34 0 0.68 0 0 Z " fill="#E4B7A9" transform="translate(385,370)"/>
<path d="M0 0 C0.99 0.33 1.98 0.66 3 1 C2.35160156 1.45375 1.70320312 1.9075 1.03515625 2.375 C-2.05597349 6.36202339 -1.63977855 10.08457719 -1.5625 15 C-1.55226807 15.97388672 -1.54203613 16.94777344 -1.53149414 17.95117188 C-0.82315654 42.75302088 9.30716135 62.02931803 27 79 C22.71379565 79 21.18199077 76.98045868 18.109375 74.16015625 C4.42655776 60.14793785 -3.39847135 39.30122373 -4 20 C-4.03996094 19.02804687 -4.07992187 18.05609375 -4.12109375 17.0546875 C-4.24684599 11.6251495 -3.94938596 7.09006333 -2 2 C-1.34 1.34 -0.68 0.68 0 0 Z " fill="#B9C2CC" transform="translate(179,427)"/>
<path d="M0 0 C0.33 0 0.66 0 1 0 C1.0987934 5.92646399 1.17143282 11.85244995 1.21972656 17.77954102 C1.23985609 19.79622749 1.26716237 21.81285551 1.30175781 23.8293457 C1.35021722 26.72622082 1.37295499 29.62232515 1.390625 32.51953125 C1.41127014 33.42274612 1.43191528 34.325961 1.45318604 35.25654602 C1.45542872 41.49669195 1.45542872 41.49669195 -0.83691406 44.0300293 C-5.55243997 46.14456479 -9.74979405 46.12892506 -14.82421875 46.09765625 C-15.68561966 46.0962413 -16.54702057 46.09482635 -17.43452454 46.09336853 C-20.18555169 46.0877714 -22.93649744 46.07521946 -25.6875 46.0625 C-27.5527332 46.05748463 -29.41796767 46.05292179 -31.28320312 46.04882812 C-35.85550011 46.03780292 -40.42773625 46.02054027 -45 46 C-45 45.34 -45 44.68 -45 44 C-45.99 44 -46.98 44 -48 44 C-47.67 43.01 -47.34 42.02 -47 41 C-46.01 41.66 -45.02 42.32 -44 43 C-41.15746616 43.23228154 -38.41532759 43.35202336 -35.5703125 43.37109375 C-34.742966 43.38012222 -33.91561951 43.3891507 -33.0632019 43.39845276 C-31.31316751 43.41295615 -29.56307888 43.42184222 -27.81298828 43.42553711 C-25.1413183 43.43742738 -22.47196327 43.4866028 -19.80078125 43.53710938 C-18.09896959 43.54657468 -16.39714376 43.5538092 -14.6953125 43.55859375 C-13.89932648 43.57812607 -13.10334045 43.59765839 -12.28323364 43.61778259 C-8.29068937 43.58545983 -6.41006976 43.27137706 -3.00073242 41.01513672 C-0.31614327 36.96941664 -0.26973229 33.95799312 -0.29296875 29.19921875 C-0.27784744 28.36284378 -0.26272614 27.52646881 -0.24714661 26.66474915 C-0.20431562 24.00539087 -0.19543644 21.34716862 -0.1875 18.6875 C-0.16435199 16.87952719 -0.13898601 15.07158132 -0.11132812 13.26367188 C-0.04852162 8.8423477 -0.01615042 4.42173081 0 0 Z " fill="#D27B60" transform="translate(498,309)"/>
<path d="M0 0 C2.78121908 1.96720374 3.74180227 3.01277337 4.59765625 6.28515625 C5.02122034 9.1431858 4.99162318 11.74052003 4.875 14.625 C4.79815435 20.81875932 6.06471747 26.14807425 8 32 C4.73054817 29.17638251 3.19151654 26.32796501 2.83349609 21.97607422 C2.73326371 18.81841321 2.68457778 15.66513258 2.69726562 12.50585938 C2.67728516 11.72919922 2.65730469 10.95253906 2.63671875 10.15234375 C2.63373779 9.45101318 2.63075684 8.74968262 2.62768555 8.02709961 C1.64598774 4.85672354 -0.28265782 3.8101086 -3 2 C-6.07893626 1.38909353 -6.07893626 1.38909353 -9.44262695 1.45410156 C-10.72357742 1.43438293 -12.00452789 1.41466431 -13.32429504 1.39434814 C-14.71229 1.39268524 -16.10028554 1.39145424 -17.48828125 1.390625 C-18.91604991 1.37563641 -20.34380128 1.35890782 -21.77153015 1.34051514 C-25.51812556 1.29690467 -29.26448711 1.27685687 -33.0112915 1.26177979 C-36.83904818 1.24218567 -40.66655314 1.20021836 -44.49414062 1.16015625 C-51.99602598 1.08492269 -59.49780545 1.03459016 -67 1 C-67 0.67 -67 0.34 -67 0 C-54.6677454 -0.89391636 -42.42351104 -1.10021474 -30.0625 -1 C-26.67838934 -0.97341079 -23.29433141 -0.9535122 -19.91015625 -0.9375 C-18.75882957 -0.92505249 -18.75882957 -0.92505249 -17.58424377 -0.91235352 C-2.80608957 -0.84318685 -2.80608957 -0.84318685 0 0 Z " fill="#CBD3DC" transform="translate(249,426)"/>
<path d="M0 0 C0 3 0 3 -1.72265625 4.875 C-2.49480469 5.57625 -3.26695312 6.2775 -4.0625 7 C-20.64431136 23.08722044 -24.75408617 44.34150949 -25.5625 66.5 C-25.60568359 67.60859375 -25.64886719 68.7171875 -25.69335938 69.859375 C-25.79862214 72.57281506 -25.90075846 75.28633417 -26 78 C-29.44534391 74.55465609 -28.99255486 69.7896604 -29.05859375 65.08203125 C-28.38307112 41.07846032 -19.97359225 19.78164532 -3 3 C-2.39800781 2.39671875 -1.79601562 1.7934375 -1.17578125 1.171875 C-0.78777344 0.78515625 -0.39976562 0.3984375 0 0 Z " fill="#C2CCD6" transform="translate(204,262)"/>
<path d="M0 0 C0.77261673 0.00141495 1.54523346 0.0028299 2.34126282 0.00428772 C4.80697514 0.00988159 7.2725964 0.02243292 9.73828125 0.03515625 C11.41080598 0.04017204 13.08333213 0.04473481 14.75585938 0.04882812 C18.85420171 0.05984901 22.95247604 0.07710941 27.05078125 0.09765625 C27.05078125 0.42765625 27.05078125 0.75765625 27.05078125 1.09765625 C25.52940552 1.11953003 25.52940552 1.11953003 23.97729492 1.1418457 C20.21424096 1.19981878 16.45178604 1.27705084 12.68920898 1.36010742 C11.06072716 1.39336161 9.43212994 1.42139209 7.8034668 1.4440918 C5.46222764 1.47762982 3.12204639 1.5299421 0.78125 1.5859375 C0.05302536 1.59232742 -0.67519928 1.59871735 -1.42549133 1.6053009 C-5.27856833 1.67069145 -5.27856833 1.67069145 -8.64428711 3.33947754 C-10.31851572 5.5952226 -10.3127485 6.86820347 -10.28979492 9.66088867 C-10.28956833 10.58161667 -10.28934174 11.50234467 -10.28910828 12.45097351 C-10.27362442 13.4416835 -10.25814056 14.43239349 -10.2421875 15.453125 C-10.23794266 16.46989822 -10.23369781 17.48667145 -10.22932434 18.53425598 C-10.21251872 21.78482437 -10.17486257 25.03477495 -10.13671875 28.28515625 C-10.12167437 30.48762126 -10.10798554 32.69009598 -10.09570312 34.89257812 C-10.06260911 40.29448197 -10.01239098 45.69602497 -9.94921875 51.09765625 C-11.82156087 49.52203254 -12.84769676 48.61896393 -13.32344055 46.17605591 C-13.32281113 45.45167328 -13.3221817 44.72729065 -13.3215332 43.98095703 C-13.32776199 43.1564505 -13.33399078 42.33194397 -13.34040833 41.48245239 C-13.33119858 40.59492279 -13.32198883 39.70739319 -13.3125 38.79296875 C-13.3129985 37.87683807 -13.31349701 36.9607074 -13.31401062 36.01681519 C-13.31166987 34.07840813 -13.3019413 32.13999805 -13.28540039 30.20166016 C-13.26186404 27.24093274 -13.26483256 24.28110935 -13.27148438 21.3203125 C-13.26590555 19.43619257 -13.25879439 17.55207642 -13.25 15.66796875 C-13.25091141 14.78448761 -13.25182281 13.90100647 -13.25276184 12.99075317 C-13.15892274 4.81173152 -13.15892274 4.81173152 -10.94921875 1.09765625 C-7.25381473 -0.13414509 -3.84618497 -0.02646487 0 0 Z " fill="#C76141" transform="translate(461.94921875,299.90234375)"/>
<path d="M0 0 C0.33 0 0.66 0 1 0 C1.08728882 3.24983 1.14048658 6.4993575 1.1875 9.75 C1.21263672 10.67039062 1.23777344 11.59078125 1.26367188 12.5390625 C1.27333984 13.42851562 1.28300781 14.31796875 1.29296875 15.234375 C1.3086792 16.05131836 1.32438965 16.86826172 1.34057617 17.70996094 C0.91170215 20.59371604 0.00552424 21.90533498 -2 24 C-6.32439257 25.56572834 -9.53211095 26.21266611 -14.06665039 25.54467773 C-19.494444 24.87135474 -24.84653705 24.91002108 -30.30859375 24.97265625 C-32.45768078 24.98528561 -34.6067694 24.99764777 -36.75585938 25.00976562 C-40.11585518 25.03471303 -43.47576731 25.06287665 -46.83569336 25.09594727 C-50.09749917 25.125998 -53.35919448 25.14386119 -56.62109375 25.16015625 C-57.6324791 25.17361588 -58.64386444 25.1870755 -59.68589783 25.20094299 C-61.08359154 25.20601112 -61.08359154 25.20601112 -62.50952148 25.21118164 C-63.33064926 25.21863907 -64.15177704 25.2260965 -64.99778748 25.23377991 C-67 25 -67 25 -69 23 C-68.19233688 22.99413376 -67.38467377 22.98826752 -66.55253601 22.98222351 C-58.94501422 22.92434532 -51.33782177 22.85229728 -43.73059368 22.76428509 C-39.81952152 22.71953685 -35.90855459 22.68029089 -31.99731445 22.65356445 C-28.22347912 22.62757539 -24.45004781 22.5872051 -20.67646217 22.53681374 C-19.23600091 22.52011506 -17.79546972 22.50861947 -16.35492516 22.50238609 C-14.33896226 22.49277852 -12.32312559 22.46303898 -10.30737305 22.43237305 C-8.58528877 22.41571846 -8.58528877 22.41571846 -6.82841492 22.39872742 C-3.99638297 22.23090964 -3.99638297 22.23090964 -2.1328125 20.60327148 C-0.65513547 18.51191263 -0.57379832 17.09918992 -0.48828125 14.55078125 C-0.43510742 13.27944336 -0.43510742 13.27944336 -0.38085938 11.98242188 C-0.35830078 11.10134766 -0.33574219 10.22027344 -0.3125 9.3125 C-0.27833984 8.41982422 -0.24417969 7.52714844 -0.20898438 6.60742188 C-0.12654352 4.40507329 -0.05738449 2.20312062 0 0 Z " fill="#B9C3CD" transform="translate(378,311)"/>
<path d="M0 0 C15.51394108 1.60654413 29.40592178 15.01215901 38.9375 26.5 C46.22259203 36.52601774 53.18066009 50.30790402 52 63 C51.67 63 51.34 63 51 63 C50.70609375 61.5459375 50.70609375 61.5459375 50.40625 60.0625 C46.29637284 41.12941161 37.13564875 22.76522608 20.36376953 11.94433594 C13.78033334 7.92911331 6.95000358 4.33600172 0 1 C0 0.67 0 0.34 0 0 Z " fill="#C4CED8" transform="translate(326,247)"/>
<path d="M0 0 C3.58807358 1.19602453 4.43474228 2.68542735 6.1796875 5.94970703 C7.5721711 9.43008718 7.59501239 12.72869744 7.5 16.4375 C7.48864014 17.18668701 7.47728027 17.93587402 7.46557617 18.70776367 C7.21909134 25.70167534 5.72548936 30.03402628 0.875 35.3125 C-9.53653278 41.42361707 -22.62682542 41.45319559 -34.30859375 39.42578125 C-38.54636102 38.23568019 -41.54795662 36.75700109 -45 34 C-44.67 33.34 -44.34 32.68 -44 32 C-43.0925 32.61875 -42.185 33.2375 -41.25 33.875 C-30.59793251 39.94345057 -17.06905006 38.79294256 -5.6640625 35.94921875 C-1.96888203 34.63260753 0.24330537 33.27283511 2.265625 29.87109375 C5.34214369 22.26525587 6.46524559 15.49029547 3.625 7.625 C1.90731867 3.76536665 1.90731867 3.76536665 0 0 Z " fill="#B4BFCB" transform="translate(302,426)"/>
<path d="M0 0 C1.11246094 0.02449219 2.22492188 0.04898437 3.37109375 0.07421875 C6.5625 0.3125 6.5625 0.3125 9.34765625 0.89453125 C11.59271711 1.54960772 11.59271711 1.54960772 13.5625 0.3125 C14.5525 0.6425 15.5425 0.9725 16.5625 1.3125 C18.62395107 1.381491 20.68751401 1.39717727 22.75 1.375 C23.83667969 1.36597656 24.92335938 1.35695313 26.04296875 1.34765625 C26.87441406 1.33605469 27.70585937 1.32445312 28.5625 1.3125 C28.2325 1.9725 27.9025 2.6325 27.5625 3.3125 C16.3425 3.6425 5.1225 3.9725 -6.4375 4.3125 C-5.24344839 9.08870643 -4.26060074 9.50881585 -0.3125 12.1875 C4.22970099 15.34986679 8.42820803 18.63757381 12.5625 22.3125 C8.41942575 22.3125 6.34776351 20.10391405 3.25 17.625 C2.69376953 17.18994141 2.13753906 16.75488281 1.56445312 16.30664062 C-0.1135174 14.98809569 -1.77554558 13.65114739 -3.4375 12.3125 C-4.0051709 11.8695459 -4.5728418 11.4265918 -5.15771484 10.97021484 C-9.32428862 7.65213415 -9.32428862 7.65213415 -10.4375 4.3125 C-7.17806232 0.27207236 -5.11554078 -0.17150368 0 0 Z " fill="#E8C9BF" transform="translate(372.4375,346.6875)"/>
<path d="M0 0 C0.56361237 0.48699371 1.12722473 0.97398743 1.70791626 1.47573853 C4.3196617 3.21257863 5.57709668 3.37903716 8.67333984 3.38818359 C10.05530045 3.40236832 10.05530045 3.40236832 11.46517944 3.4168396 C12.4537796 3.41076691 13.44237976 3.40469421 14.4609375 3.3984375 C15.48426178 3.40130768 16.50758606 3.40417786 17.56192017 3.40713501 C19.72553053 3.40917539 21.88915935 3.40364736 24.05273438 3.39111328 C27.35589154 3.37509268 30.65781895 3.39094634 33.9609375 3.41015625 C36.06510686 3.40817317 38.16927545 3.40432815 40.2734375 3.3984375 C41.2579892 3.40451019 42.24254089 3.41058289 43.25692749 3.4168396 C48.69832203 3.36136761 52.18152751 2.77299402 57 0 C57.66 0.33 58.32 0.66 59 1 C54.60499527 4.58111497 50.72870684 6.28571786 45.02612305 6.13525391 C44.06550461 6.11508209 43.10488617 6.09491028 42.11515808 6.0741272 C41.0910231 6.04193085 40.06688812 6.0097345 39.01171875 5.9765625 C37.95338333 5.95153656 36.89504791 5.92651062 35.80464172 5.90072632 C32.43192673 5.81870451 29.05981288 5.72204498 25.6875 5.625 C23.39781083 5.56674231 21.10809716 5.50943942 18.81835938 5.453125 C13.21190831 5.31315223 7.60587968 5.16116683 2 5 C1.34 3.35 0.68 1.7 0 0 Z " fill="#C56242" transform="translate(451,462)"/>
<path d="M0 0 C4.40670706 -0.07559007 8.8130456 -0.12926088 13.22021484 -0.16479492 C14.71149283 -0.17964702 16.20272911 -0.19993422 17.69384766 -0.22631836 C31.19118499 -0.45871681 44.4596443 0.51359438 57 6 C57 6.66 57 7.32 57 8 C55.90042969 7.73445312 54.80085938 7.46890625 53.66796875 7.1953125 C52.17451619 6.83838673 50.68102446 6.48162481 49.1875 6.125 C48.46884766 5.95097656 47.75019531 5.77695313 47.00976562 5.59765625 C44.67763223 5.04287562 42.34115717 4.5153682 40 4 C39.17669189 3.81614746 38.35338379 3.63229492 37.50512695 3.44287109 C29.63121448 1.83636783 21.83022153 1.56713711 13.8125 1.375 C12.46547279 1.3367036 11.11846701 1.2976457 9.77148438 1.2578125 C6.51445318 1.16442092 3.25741491 1.078646 0 1 C0 0.67 0 0.34 0 0 Z " fill="#AEB7C3" transform="translate(269,240)"/>
<path d="M0 0 C0 4.75695089 -3.08278794 7.41151549 -6 11 C-6.56847656 11.71671875 -7.13695312 12.4334375 -7.72265625 13.171875 C-12.14760345 18.47053789 -17.05708535 22.59158582 -22.60766602 26.63818359 C-25.32973528 28.63287692 -27.10312572 30.15468858 -29 33 C-29.33 31.68 -29.66 30.36 -30 29 C-29.31035156 28.5153125 -28.62070312 28.030625 -27.91015625 27.53125 C-18.60705741 20.89529472 -10.58306079 14.38436325 -4 5 C-2.67518731 3.32655239 -1.34592097 1.65651812 0 0 Z " fill="#E8C0B4" transform="translate(395,492)"/>
<path d="M0 0 C1.32 0.66 2.64 1.32 4 2 C-4.83679164 6.25819667 -13.53893269 10.26069813 -23.125 12.5 C-24.13421509 12.73928223 -24.13421509 12.73928223 -25.16381836 12.98339844 C-29.86887073 13.9938325 -34.22068696 14.1277322 -39 14 C-35.85309282 12.20811403 -33.13855195 11.60051301 -29.5625 11.125 C-22.79781054 10.0772981 -16.49021086 8.13308841 -10 6 C-9.08089844 5.72929688 -8.16179687 5.45859375 -7.21484375 5.1796875 C-6.40144531 4.93476562 -5.58804688 4.68984375 -4.75 4.4375 C-4.04359375 4.22996094 -3.3371875 4.02242187 -2.609375 3.80859375 C-0.62397918 3.04816047 -0.62397918 3.04816047 0 0 Z " fill="#BAC4CE" transform="translate(339,513)"/>
<path d="M0 0 C4.06250184 2.96902987 7.0451616 6.29840152 9.9375 10.375 C10.3691748 10.98206787 10.80084961 11.58913574 11.24560547 12.21459961 C16.11427681 19.29721408 21.62531757 28.16327533 21 37 C18.93152176 33.89728263 17.70730316 30.95452619 16.3125 27.5 C12.84918827 19.20248232 8.50337185 11.73106169 2.5625 4.9375 C0 2 0 2 0 0 Z " fill="#E7C5B8" transform="translate(385,370)"/>
<path d="M0 0 C2.92879371 0.62759865 5.36095629 1.58622659 8 3 C8 3.66 8 4.32 8 5 C8.66 5 9.32 5 10 5 C10 5.66 10 6.32 10 7 C10.556875 7.2475 11.11375 7.495 11.6875 7.75 C16.07717073 10.12279499 19.55229873 13.43341248 23 17 C23.66 17.66 24.32 18.32 25 19 C24.625 21.125 24.625 21.125 24 23 C22.90945313 21.74896484 22.90945313 21.74896484 21.796875 20.47265625 C15.74126269 13.65349255 9.67105967 7.85607782 2.203125 2.609375 C1.11257813 1.81273437 1.11257813 1.81273437 0 1 C0 0.67 0 0.34 0 0 Z " fill="#C76343" transform="translate(369,356)"/>
<path d="M0 0 C0.99 0.33 1.98 0.66 3 1 C2.34805664 1.51208008 1.69611328 2.02416016 1.02441406 2.55175781 C-1.71944371 5.87006531 -1.46054423 7.90680194 -1.390625 12.171875 C-1.38496521 12.8542926 -1.37930542 13.53671021 -1.37347412 14.23980713 C-1.35115636 16.41059762 -1.30097508 18.57971206 -1.25 20.75 C-1.22992876 22.2252365 -1.21167907 23.70049899 -1.1953125 25.17578125 C-1.1513088 28.78439501 -1.08231583 32.39203381 -1 36 C-5.39029347 27.72666251 -5.49782548 13.98039394 -3.125 4.9375 C-2 2 -2 2 0 0 Z " fill="#D0D5DD" transform="translate(179,427)"/>
<path d="M0 0 C4.99872122 -0.09935536 9.99685955 -0.17169622 14.99633789 -0.21972656 C16.69468202 -0.23976221 18.39295785 -0.26699885 20.09106445 -0.30175781 C22.5413504 -0.35063415 24.9907194 -0.37304872 27.44140625 -0.390625 C28.56839684 -0.42159271 28.56839684 -0.42159271 29.71815491 -0.45318604 C35.25965404 -0.45551064 38.41103281 0.88050298 43 4 C43.66 4.66 44.32 5.32 45 6 C44.625 8.125 44.625 8.125 44 10 C43.79375 9.21625 43.5875 8.4325 43.375 7.625 C42.20145792 4.6982822 42.20145792 4.6982822 38.9375 3.75 C37.968125 3.5025 36.99875 3.255 36 3 C35.505 2.505 35.505 2.505 35 2 C32.40846893 1.84003834 29.8404798 1.74061303 27.24609375 1.68359375 C26.47064713 1.66281265 25.6952005 1.64203156 24.89625549 1.62062073 C22.41009692 1.55504198 19.92382955 1.49620201 17.4375 1.4375 C15.75584796 1.39432267 14.07420706 1.35070864 12.39257812 1.30664062 C8.26183129 1.19935221 4.13097464 1.09810868 0 1 C0 0.67 0 0.34 0 0 Z " fill="#CF5B35" transform="translate(454,299)"/>
<path d="M0 0 C3.58807358 1.19602453 4.43474228 2.68542735 6.1796875 5.94970703 C7.57246788 9.43082894 7.59299341 12.72814217 7.5 16.4375 C7.49226563 17.18378662 7.48453125 17.93007324 7.4765625 18.69897461 C7.29846176 24.34934424 6.22266465 28.26671129 3 33 C2.01 33 1.02 33 0 33 C0.27714844 32.45730469 0.55429687 31.91460937 0.83984375 31.35546875 C1.20207031 30.64003906 1.56429688 29.92460937 1.9375 29.1875 C2.47697266 28.12595703 2.47697266 28.12595703 3.02734375 27.04296875 C5.6376614 21.56025336 5.93927902 15.58023885 4.3984375 9.70703125 C3.15983294 6.37280787 1.69427604 3.12789424 0 0 Z " fill="#C3CDD7" transform="translate(302,426)"/>
<path d="M0 0 C3.80274552 7.60549104 3.18629972 15.78790576 3.18530273 24.12573242 C3.1875056 26.19275017 3.20575459 28.25924706 3.22460938 30.32617188 C3.22654297 31.63521484 3.22847656 32.94425781 3.23046875 34.29296875 C3.23457764 35.4843042 3.23868652 36.67563965 3.24291992 37.90307617 C3 41 3 41 1 45 C1.33 34.44 1.66 23.88 2 13 C1.34 13 0.68 13 0 13 C0 8.71 0 4.42 0 0 Z " fill="#C8684A" transform="translate(587,423)"/>
<path d="M0 0 C-17.03846154 13 -17.03846154 13 -26 13 C-26 12.34 -26 11.68 -26 11 C-24.35 11 -22.7 11 -21 11 C-21 10.34 -21 9.68 -21 9 C-19.68 9 -18.36 9 -17 9 C-16.67 8.01 -16.34 7.02 -16 6 C-12.535 5.505 -12.535 5.505 -9 5 C-9 4.34 -9 3.68 -9 3 C-8.01 3 -7.02 3 -6 3 C-6 2.01 -6 1.02 -6 0 C-3.50907189 -1.24546405 -2.58919267 -0.7767578 0 0 Z " fill="#C76444" transform="translate(566,506)"/>
<path d="M0 0 C3.531255 1.177085 4.11871513 2.39368497 5.82421875 5.57421875 C15.46514025 25.4646249 15.46514025 25.4646249 15 35 C13.29169227 31.96387126 12.31380604 28.85469865 11.35083008 25.51660156 C9.10037037 17.7291514 6.16525876 10.98688566 2 4 C1.32072562 2.67304539 0.64937634 1.34183926 0 0 Z " fill="#C56445" transform="translate(388,267)"/>
<path d="M0 0 C1 3 1 3 -0.00390625 5.63671875 C-3.19269514 11.87843334 -6.51898084 17.59735278 -11 23 C-11.33 21.68 -11.66 20.36 -12 19 C-11.01 18.67 -10.02 18.34 -9 18 C-8.67 16.02 -8.34 14.04 -8 12 C-7.34 12 -6.68 12 -6 12 C-5.01 9.36 -4.02 6.72 -3 4 C-2.34 4 -1.68 4 -1 4 C-0.67 2.68 -0.34 1.36 0 0 Z " fill="#C96442" transform="translate(568,337)"/>
<path d="M0 0 C0.33 0 0.66 0 1 0 C1 9.24 1 18.48 1 28 C-2.76579267 24.23420733 -1.97302322 18.0932162 -2 13 C-1.54812877 8.61821842 -0.85552678 4.32005669 0 0 Z " fill="#CDD4DE" transform="translate(177,312)"/>
<path d="M0 0 C9.39160842 1.07494313 18.19185396 6.58089088 25 13 C21.55639368 13 20.25204608 12.20408468 17.3125 10.5 C16.50425781 10.0359375 15.69601562 9.571875 14.86328125 9.09375 C14.24839844 8.7328125 13.63351562 8.371875 13 8 C13 7.34 13 6.68 13 6 C12.39671875 5.81824219 11.7934375 5.63648438 11.171875 5.44921875 C3.23374341 2.95254833 3.23374341 2.95254833 0 0 Z " fill="#C76343" transform="translate(525,247)"/>
<path d="M0 0 C2.26678786 0.90671514 3.70298853 1.56712158 5.1015625 3.60546875 C6.5612921 7.49596546 6.43210855 11.47982992 6.56640625 15.59960938 C6.73263677 19.2386122 6.92710957 20.89066435 9 24 C5.125 22.25 5.125 22.25 4 20 C3.84438812 17.93958349 3.72475001 15.87637528 3.625 13.8125 C3.26616203 8.50640407 2.49794339 4.67006809 0 0 Z " fill="#B4BDC7" transform="translate(300,310)"/>
<path d="M0 0 C0.33 0 0.66 0 1 0 C1 11.88 1 23.76 1 36 C-0.98 36.495 -0.98 36.495 -3 37 C-2.67854004 36.16194824 -2.35708008 35.32389648 -2.02587891 34.46044922 C-0.91564659 30.71546283 -0.6826415 27.53320711 -0.5859375 23.6328125 C-0.56657135 22.95322479 -0.5472052 22.27363708 -0.5272522 21.57345581 C-0.46794901 19.42409421 -0.42127109 17.27467759 -0.375 15.125 C-0.33677468 13.6588321 -0.29772036 12.19268557 -0.2578125 10.7265625 C-0.16228956 7.15123836 -0.07807874 3.57575252 0 0 Z " fill="#C26041" transform="translate(514,423)"/>
<path d="M0 0 C0.77261673 0.00141495 1.54523346 0.0028299 2.34126282 0.00428772 C4.80697514 0.00988159 7.2725964 0.02243292 9.73828125 0.03515625 C11.41080598 0.04017204 13.08333213 0.04473481 14.75585938 0.04882812 C18.85420171 0.05984901 22.95247604 0.07710941 27.05078125 0.09765625 C27.05078125 0.42765625 27.05078125 0.75765625 27.05078125 1.09765625 C25.53726074 1.11953003 25.53726074 1.11953003 23.99316406 1.1418457 C20.24313234 1.19989739 16.49369679 1.27712917 12.74414062 1.36010742 C11.12249439 1.3933246 9.50073344 1.4213666 7.87890625 1.4440918 C5.54507648 1.4776978 3.2122949 1.53001385 0.87890625 1.5859375 C0.1558429 1.59232742 -0.56722046 1.59871735 -1.31219482 1.6053009 C-5.45314987 1.72576873 -7.93539487 2.16906494 -10.94921875 5.09765625 C-10.94921875 3.77765625 -10.94921875 2.45765625 -10.94921875 1.09765625 C-7.25381473 -0.13414509 -3.84618497 -0.02646487 0 0 Z " fill="#C5684B" transform="translate(461.94921875,299.90234375)"/>
<path d="M0 0 C4.89221396 1.36595959 8.71617907 3.57605827 12.8125 6.5 C13.39708984 6.90347656 13.98167969 7.30695313 14.58398438 7.72265625 C18.86406948 10.72813895 18.86406948 10.72813895 20 13 C16.35268276 12.3781072 14.07836987 10.80552542 11.125 8.625 C7.51066321 6.02118045 4.06053238 3.81655396 0 2 C0 1.34 0 0.68 0 0 Z " fill="#C86546" transform="translate(548,379)"/>
<path d="M0 0 C1.43473929 2.6802822 2.39715699 5.14749077 3.0703125 8.109375 C3.33134766 9.24052734 3.33134766 9.24052734 3.59765625 10.39453125 C3.77167969 11.17183594 3.94570312 11.94914062 4.125 12.75 C4.30675781 13.54277344 4.48851562 14.33554687 4.67578125 15.15234375 C5.12175014 17.10052366 5.56149151 19.05012731 6 21 C5.34 21.33 4.68 21.66 4 22 C3.13161176 19.27464312 2.28007381 16.54583627 1.4375 13.8125 C1.19064453 13.04357422 0.94378906 12.27464844 0.68945312 11.48242188 C-0.58110499 7.31284385 -1.43600867 4.29082831 0 0 Z " fill="#B7BFC9" transform="translate(178,338)"/>
<path d="M0 0 C1.32428491 3.02583702 0.91373384 4.27185989 -0.109375 7.49609375 C-0.6447397 8.8146281 -1.19204923 10.12836322 -1.75 11.4375 C-2.01554687 12.09298828 -2.28109375 12.74847656 -2.5546875 13.42382812 C-4.0945693 17.15019258 -5.82779229 20.60428975 -8 24 C-9 22 -9 22 -8.39501953 20.07641602 C-8.06099121 19.30998779 -7.72696289 18.54355957 -7.3828125 17.75390625 C-7.02316406 16.91666016 -6.66351563 16.07941406 -6.29296875 15.21679688 C-5.90753906 14.34087891 -5.52210938 13.46496094 -5.125 12.5625 C-4.37679373 10.8349862 -3.62936498 9.10713539 -2.8828125 7.37890625 C-2.54652832 6.6113501 -2.21024414 5.84379395 -1.86376953 5.05297852 C-1.16755099 3.39822958 -0.56770717 1.70312151 0 0 Z " fill="#E8C6BC" transform="translate(405,468)"/>
<path d="M0 0 C5.33333333 5.33333333 10.66666667 10.66666667 16 16 C11.68638423 16 10.10719677 13.82908822 7.0078125 11.015625 C0 3.98054475 0 3.98054475 0 0 Z " fill="#C4CDD5" transform="translate(190,490)"/>
<path d="M0 0 C1.17046875 0.03609375 2.3409375 0.0721875 3.546875 0.109375 C4.43890625 0.15578125 5.3309375 0.2021875 6.25 0.25 C6.58 0.91 6.91 1.57 7.25 2.25 C6.35796875 2.27578125 5.4659375 2.3015625 4.546875 2.328125 C3.37640625 2.38484375 2.2059375 2.4415625 1 2.5 C-0.74023438 2.56960938 -0.74023438 2.56960938 -2.515625 2.640625 C-6.21661382 3.33791275 -7.42122429 4.36785184 -9.75 7.25 C-10.08 6.26 -10.41 5.27 -10.75 4.25 C-7.43152371 0.07726249 -5.22729025 -0.20909161 0 0 Z " fill="#D4D0CE" transform="translate(372.75,346.75)"/>
<path d="M0 0 C1.65 0 3.3 0 5 0 C2.13463296 4.07763771 -0.43041625 6.02677065 -5 8 C-4.67 6.35 -4.34 4.7 -4 3 C-2.68 3 -1.36 3 0 3 C0 2.01 0 1.02 0 0 Z " fill="#CC623E" transform="translate(548,363)"/>
<path d="M0 0 C0.66 0.33 1.32 0.66 2 1 C-0.38179263 4.74281699 -2.74475735 7.97727468 -6 11 C-6 9.68 -6 8.36 -6 7 C-5.34 7 -4.68 7 -4 7 C-3.896875 6.21625 -3.79375 5.4325 -3.6875 4.625 C-3 2 -3 2 0 0 Z " fill="#CA633E" transform="translate(579,487)"/>
<path d="M0 0 C0.33 0 0.66 0 1 0 C1.25 2.8125 1.25 2.8125 1 6 C-1.2206051 8.467339 -2.43569203 8.96152446 -5.75 9.1875 C-6.4925 9.125625 -7.235 9.06375 -8 9 C-6.8553125 8.1646875 -6.8553125 8.1646875 -5.6875 7.3125 C-3.03568819 5.03070844 -1.68044905 3.02480829 0 0 Z " fill="#CE6749" transform="translate(498,345)"/>
<path d="M0 0 C0.061875 0.61875 0.12375 1.2375 0.1875 1.875 C0.455625 2.57625 0.72375 3.2775 1 4 C2.2375 4.495 2.2375 4.495 3.5 5 C4.7375 5.495 4.7375 5.495 6 6 C6.8125 8.125 6.8125 8.125 7 10 C6.01 10.495 6.01 10.495 5 11 C2.69 8.03 0.38 5.06 -2 2 C-1.34 1.34 -0.68 0.68 0 0 Z " fill="#CB603E" transform="translate(382,256)"/>
<path d="M0 0 C0.33 0 0.66 0 1 0 C1.57293869 9.73995772 1.57293869 9.73995772 -2 14 C-2.66 14 -3.32 14 -4 14 C-3.79503906 13.32453125 -3.59007812 12.6490625 -3.37890625 11.953125 C-3.10949219 11.06109375 -2.84007812 10.1690625 -2.5625 9.25 C-2.16224609 7.92742187 -2.16224609 7.92742187 -1.75390625 6.578125 C-1.11531506 4.39434165 -0.53224167 2.21164502 0 0 Z " fill="#CA6B49" transform="translate(406,468)"/>
<path d="M0 0 C0.99 0.33 1.98 0.66 3 1 C2.35546875 1.52078125 1.7109375 2.0415625 1.046875 2.578125 C-1.59985676 5.70975418 -1.58790924 7.69773096 -1.75 11.75 C-1.80671875 12.92046875 -1.8634375 14.0909375 -1.921875 15.296875 C-1.94765625 16.18890625 -1.9734375 17.0809375 -2 18 C-2.33 18 -2.66 18 -3 18 C-3.08119503 15.75059705 -3.13927819 13.50035129 -3.1875 11.25 C-3.22230469 9.99703125 -3.25710937 8.7440625 -3.29296875 7.453125 C-2.98802939 3.85890643 -2.45605371 2.55274874 0 0 Z " fill="#C0C9D4" transform="translate(179,427)"/>
<path d="M0 0 C1.32 0.66 2.64 1.32 4 2 C2.23494565 2.86604534 0.46271926 3.71748642 -1.3125 4.5625 C-2.79169922 5.27599609 -2.79169922 5.27599609 -4.30078125 6.00390625 C-7 7 -7 7 -10 6 C-9.36191406 5.81824219 -8.72382813 5.63648438 -8.06640625 5.44921875 C-7.24011719 5.19785156 -6.41382813 4.94648437 -5.5625 4.6875 C-4.32693359 4.32205078 -4.32693359 4.32205078 -3.06640625 3.94921875 C-2.38449219 3.63597656 -1.70257813 3.32273437 -1 3 C-0.67 2.01 -0.34 1.02 0 0 Z " fill="#8F9DA9" transform="translate(339,513)"/>
<path d="M0 0 C5.41139241 0.60126582 5.41139241 0.60126582 7.9375 2.3125 C9 4 9 4 8.6875 6.1875 C8.3471875 7.0846875 8.3471875 7.0846875 8 8 C7.690625 6.824375 7.690625 6.824375 7.375 5.625 C6.19323388 2.69083714 6.19323388 2.69083714 2.875 1.6875 C1.451875 1.3471875 1.451875 1.3471875 0 1 C0 0.67 0 0.34 0 0 Z " fill="#C96649" transform="translate(490,301)"/>
<path d="M0 0 C0.33 0 0.66 0 1 0 C1.08131463 1.43655854 1.13933559 2.8744483 1.1875 4.3125 C1.23970703 5.51326172 1.23970703 5.51326172 1.29296875 6.73828125 C0.93801608 9.47851584 0.10633718 10.29171079 -2 12 C-1.44687265 7.97007218 -0.8441938 3.97977076 0 0 Z " fill="#C66748" transform="translate(409,456)"/>
<path d="M0 0 C3.63 0 7.26 0 11 0 C11 0.33 11 0.66 11 1 C9.88625 1.12375 8.7725 1.2475 7.625 1.375 C3.96896323 1.6465813 3.96896323 1.6465813 2 4 C1.34 2.68 0.68 1.36 0 0 Z " fill="#D65E35" transform="translate(367,352)"/>
<path d="M0 0 C1.98 0 3.96 0 6 0 C5.67 1.65 5.34 3.3 5 5 C2.5 3.625 2.5 3.625 0 2 C0 1.34 0 0.68 0 0 Z " fill="#D95D33" transform="translate(367,244)"/>
<path d="" fill="#CDD1D2" transform="translate(0,0)"/>
<path d="" fill="#D3D4D8" transform="translate(0,0)"/>
<path d="" fill="#D4D2D5" transform="translate(0,0)"/>
</svg>
